<?xml version="1.0" encoding="UTF-8" standalone="no"?>
<svg
   xmlns:dc="http://purl.org/dc/elements/1.1/"
   xmlns:cc="http://creativecommons.org/ns#"
   xmlns:rdf="http://www.w3.org/1999/02/22-rdf-syntax-ns#"
   xmlns:svg="http://www.w3.org/2000/svg"
   xmlns="http://www.w3.org/2000/svg"
   viewBox="0 0 450 78.875"
   height="22.1"
   width="127.5"
   xml:space="preserve"
   version="1.1"
   id="svg2"><metadata
     id="metadata8"><rdf:RDF><cc:Work
         rdf:about=""><dc:format>image/svg+xml</dc:format><dc:type
           rdf:resource="http://purl.org/dc/dcmitype/StillImage" /></cc:Work></rdf:RDF></metadata><defs
     id="defs6" /><g
     transform="matrix(1.25,0,0,-1.25,0,78.875)"
     id="g10"><g
       transform="scale(0.1,0.1)"
       id="g12"><path
         id="path14"
         style="fill:#100f0d;fill-opacity:1;fill-rule:nonzero;stroke:none"
         d="m 3340.26,311.488 0,1.438 c 0,64.902 -43.8,107.945 -95.59,107.945 -51.71,0 -94.81,-43.043 -94.81,-107.945 l 0,-1.438 c 0,-64.957 43.1,-108.035 94.81,-108.035 51.79,0 95.59,42.367 95.59,108.035 z m -299.82,196.235 110.91,0 0,-56.157 c 26.97,36.457 64.21,63.411 121.79,63.411 91.21,0 177.96,-71.473 177.96,-202.051 l 0,-1.438 c 0,-130.613 -85.31,-202.093 -177.96,-202.093 -59.11,0 -95.6,26.988 -121.79,58.351 l 0,-167.746 -110.91,0 0,507.723" /><path
         id="path16"
         style="fill:#100f0d;fill-opacity:1;fill-rule:nonzero;stroke:none"
         d="m 838.965,630.961 103.676,0 239.229,-318.035 0,318.035 110.88,0 0,-514.316 -95.54,0 -247.28,324.722 0,-324.722 -110.965,0 0,514.316" /><path
         id="path18"
         style="fill:#100f0d;fill-opacity:1;fill-rule:nonzero;stroke:none"
         d="m 1622.38,342.832 c -6.53,49.664 -35.72,83.203 -82.35,83.203 -46.03,0 -75.96,-32.965 -84.68,-83.203 l 167.03,0 z m -275.72,-32.844 0,1.5 c 0,111.602 79.53,203.489 193.37,203.489 130.52,0 190.31,-101.395 190.31,-212.286 0,-8.722 -0.65,-18.992 -1.47,-29.171 l -272.09,0 c 11.02,-50.325 45.97,-76.633 95.61,-76.633 37.22,0 64.16,11.679 94.82,40.168 l 63.4,-56.18 c -36.41,-45.246 -88.96,-72.941 -159.66,-72.941 -117.48,0 -204.29,82.41 -204.29,202.054" /><path
         id="path20"
         style="fill:#100f0d;fill-opacity:1;fill-rule:nonzero;stroke:none"
         d="m 1799.59,227.629 0,185.277 -46.67,0 0,94.817 46.67,0 0,99.875 110.81,0 0,-99.875 92,0 0,-94.817 -92,0 0,-167.086 c 0,-25.531 11.01,-37.965 35.77,-37.965 20.41,0 38.64,5.102 54.75,13.942 l 0,-89.039 c -23.36,-13.899 -50.43,-22.637 -87.65,-22.637 -67.77,0 -113.68,27.016 -113.68,117.508" /><path
         id="path22"
         style="fill:#100f0d;fill-opacity:1;fill-rule:nonzero;stroke:none"
         d="m 2884.38,311.488 0,1.438 c 0,64.902 -43.78,107.945 -95.51,107.945 -51.76,0 -94.79,-43.043 -94.79,-107.945 l 0,-1.438 c 0,-64.957 43.03,-108.035 94.79,-108.035 51.73,0 95.51,42.367 95.51,108.035 z m -299.71,196.235 110.86,0 0,-56.157 c 26.97,36.457 64.14,63.411 121.81,63.411 91.21,0 177.96,-71.473 177.96,-202.051 l 0,-1.438 c 0,-130.613 -85.31,-202.093 -177.96,-202.093 -59.08,0 -95.6,26.988 -121.81,58.351 l 0,-167.746 -110.86,0 0,507.723" /><path
         id="path24"
         style="fill:#100f0d;fill-opacity:1;fill-rule:nonzero;stroke:none"
         d="m 2359.53,330.348 -67.81,165.742 -67.88,-165.742 135.69,0 z m -116.88,300.66 100.94,0 213.37,-514.363 -117.04,0 -47.02,114.609 -202.44,0 -46.7,-114.609 -114.47,0 213.36,514.363" /><path
         id="path26"
         style="fill:#3862b7;fill-opacity:1;fill-rule:nonzero;stroke:none"
         d="m 0,630.938 0,-514.293 239.996,0 0,308.578 137.145,0 0,-308.578 240,0 0,514.293 -617.141,0" /><path
         id="path28"
         style="fill:#100f0d;fill-opacity:1;fill-rule:nonzero;stroke:none"
         d="m 3522.35,454.758 12.21,0 c 2.51,0 4.94,0.078 7.32,0.25 2.41,0.195 4.56,0.664 6.33,1.465 1.87,0.808 3.31,2.031 4.41,3.683 1.07,1.653 1.62,3.977 1.62,6.953 0,2.504 -0.48,4.52 -1.49,5.985 -0.92,1.484 -2.22,2.644 -3.74,3.453 -1.55,0.793 -3.32,1.34 -5.33,1.609 -1.95,0.266 -3.99,0.442 -5.91,0.442 l -15.42,0 0,-23.84 z m -11.63,33.265 28.94,0 c 8.9,0 15.5,-1.785 19.81,-5.312 4.24,-3.543 6.43,-8.922 6.43,-16.117 0,-6.75 -1.9,-11.688 -5.71,-14.821 -3.73,-3.16 -8.42,-5.007 -14.03,-5.574 l 21.43,-33.07 -12.5,0 -20.41,32.223 -12.33,0 0,-32.223 -11.63,0 0,74.894 z m -27.95,-37.207 c 0,-7.871 1.37,-15.16 4.03,-21.855 2.69,-6.668 6.4,-12.465 11.19,-17.371 4.69,-4.926 10.33,-8.781 16.74,-11.586 6.45,-2.781 13.45,-4.176 21,-4.176 7.42,0 14.35,1.395 20.73,4.176 6.43,2.805 11.98,6.66 16.7,11.586 4.72,4.906 8.46,10.703 11.15,17.371 2.69,6.695 4.03,13.984 4.03,21.855 0,7.672 -1.34,14.801 -4.03,21.434 -2.69,6.617 -6.43,12.363 -11.15,17.203 -4.72,4.875 -10.27,8.692 -16.7,11.488 -6.38,2.797 -13.31,4.192 -20.73,4.192 -7.55,0 -14.55,-1.395 -21,-4.192 -6.41,-2.796 -12.05,-6.613 -16.74,-11.488 -4.79,-4.84 -8.5,-10.586 -11.19,-17.203 -2.66,-6.633 -4.03,-13.762 -4.03,-21.434 z m -11.66,0 c 0,9.028 1.72,17.411 5.13,25.192 3.46,7.785 8.09,14.519 14.01,20.238 5.87,5.707 12.75,10.203 20.57,13.434 7.8,3.277 16.1,4.894 24.91,4.894 8.69,0 16.92,-1.617 24.76,-4.894 7.82,-3.231 14.63,-7.727 20.46,-13.434 5.84,-5.719 10.46,-12.453 13.89,-20.238 3.42,-7.781 5.16,-16.164 5.16,-25.192 0,-9.246 -1.74,-17.796 -5.16,-25.593 -3.43,-7.852 -8.05,-14.653 -13.89,-20.407 -5.83,-5.773 -12.64,-10.265 -20.46,-13.519 -7.84,-3.285 -16.07,-4.891 -24.76,-4.891 -8.81,0 -17.11,1.606 -24.91,4.891 -7.82,3.254 -14.7,7.746 -20.57,13.519 -5.92,5.754 -10.55,12.555 -14.01,20.407 -3.41,7.797 -5.13,16.347 -5.13,25.593" /></g></g></svg>
