<?xml version="1.0" encoding="UTF-8"?>
<!DOCTYPE svg PUBLIC "-//W3C//DTD SVG 1.1//EN" "http://www.w3.org/Graphics/SVG/1.1/DTD/svg11.dtd">
<!-- Creator: CorelDRAW X6 -->
<svg xmlns="http://www.w3.org/2000/svg" xml:space="preserve" width="127.5" height="22.1" version="1.1" style="shape-rendering:geometricPrecision; text-rendering:geometricPrecision; image-rendering:optimizeQuality; fill-rule:evenodd; clip-rule:evenodd"
viewBox="0 0 5000 875"
 xmlns:xlink="http://www.w3.org/1999/xlink">
 <defs>
  <style type="text/css">
   <![CDATA[
    .fil0 {fill:#282828;fill-rule:nonzero}
    .fil1 {fill:#386DB4;fill-rule:nonzero}
   ]]>
  </style>
 </defs>
 <g id="Layer_x0020_1">
  <metadata id="CorelCorpID_0Corel-Layer"/>
  <path class="fil0" d="M4639 442l0 -2c0,-90 -61,-150 -133,-150 -72,0 -132,60 -132,150l0 2c0,90 60,150 132,150 72,0 133,-59 133,-150zm-416 -273l154 0 0 78c37,-51 89,-88 169,-88 127,0 247,99 247,281l0 2c0,181 -118,281 -247,281 -82,0 -133,-37 -169,-81l0 233 -154 0 0 -705z"/>
  <polygon class="fil0" points="1165,-1 1309,-1 1641,440 1641,-1 1795,-1 1795,713 1663,713 1319,262 1319,713 1165,713 "/>
  <path class="fil0" d="M2253 399c-9,-69 -50,-116 -114,-116 -64,0 -106,46 -118,116l232 0zm-383 46l0 -2c0,-155 110,-283 269,-283 181,0 264,141 264,295 0,12 -1,26 -2,41l-378 0c15,70 64,106 133,106 52,0 89,-16 132,-56l88 78c-51,63 -124,101 -222,101 -163,0 -284,-114 -284,-281z"/>
  <path class="fil0" d="M2499 559l0 -257 -65 0 0 -132 65 0 0 -139 154 0 0 139 128 0 0 132 -128 0 0 232c0,35 15,53 50,53 28,0 54,-7 76,-19l0 124c-32,19 -70,31 -122,31 -94,0 -158,-38 -158,-163z"/>
  <path class="fil0" d="M4006 442l0 -2c0,-90 -61,-150 -133,-150 -72,0 -132,60 -132,150l0 2c0,90 60,150 132,150 72,0 133,-59 133,-150zm-416 -273l154 0 0 78c37,-51 89,-88 169,-88 127,0 247,99 247,281l0 2c0,181 -118,281 -247,281 -82,0 -133,-37 -169,-81l0 233 -154 0 0 -705z"/>
  <path class="fil0" d="M3277 416l-94 -230 -94 230 188 0zm-22 -418l-140 0 -296 714 159 0 65 -159 281 0 65 159 163 0 -296 -714z"/>
  <polygon class="fil1" points="0,-1 0,713 333,713 333,284 524,284 524,713 857,713 857,-1 "/>
  <path class="fil0" d="M4892 243l17 0c3,0 7,0 10,0 3,0 6,-1 9,-2 3,-1 5,-3 6,-5 1,-2 2,-6 2,-10 0,-3 -1,-6 -2,-8 -1,-2 -3,-4 -5,-5 -2,-1 -5,-2 -7,-2 -3,0 -6,-1 -8,-1l-21 0 0 33zm-16 -46l40 0c12,0 22,2 28,7 6,5 9,12 9,22 0,9 -3,16 -8,21 -5,4 -12,7 -19,8l30 46 -17 0 -28 -45 -17 0 0 45 -16 0 0 -104zm-39 52c0,11 2,21 6,30 4,9 9,17 16,24 7,7 14,12 23,16 9,4 19,6 29,6 10,0 20,-2 29,-6 9,-4 17,-9 23,-16 7,-7 12,-15 15,-24 4,-9 6,-19 6,-30 0,-11 -2,-21 -6,-30 -4,-9 -9,-17 -15,-24 -7,-7 -14,-12 -23,-16 -9,-4 -18,-6 -29,-6 -10,0 -20,2 -29,6 -9,4 -17,9 -23,16 -7,7 -12,15 -16,24 -4,9 -6,19 -6,30zm-16 0c0,-13 2,-24 7,-35 5,-11 11,-20 19,-28 8,-8 18,-14 29,-19 11,-5 22,-7 35,-7 12,0 24,2 34,7 11,4 20,11 28,19 8,8 15,17 19,28 5,11 7,22 7,35 0,13 -2,25 -7,36 -5,11 -11,20 -19,28 -8,8 -18,14 -28,19 -11,5 -22,7 -34,7 -12,0 -24,-2 -35,-7 -11,-5 -20,-11 -29,-19 -8,-8 -15,-17 -19,-28 -5,-11 -7,-23 -7,-36z"/>
 </g>
</svg>
