<?xml version="1.0" encoding="UTF-8"?>
<!DOCTYPE svg PUBLIC "-//W3C//DTD SVG 1.1//EN" "http://www.w3.org/Graphics/SVG/1.1/DTD/svg11.dtd">
<!-- Creator: CorelDRAW X6 -->
<svg xmlns="http://www.w3.org/2000/svg" xml:space="preserve" width="47.62503" height="53.624997" version="1.1" style="shape-rendering:geometricPrecision; text-rendering:geometricPrecision; image-rendering:optimizeQuality; fill-rule:evenodd; clip-rule:evenodd"
viewBox="0 0 3528 3972"
 xmlns:xlink="http://www.w3.org/1999/xlink">
 <defs>
  <style type="text/css">
   <![CDATA[
    .fil0 {fill:#282828;fill-rule:nonzero}
    .fil1 {fill:#2D6DB4;fill-rule:nonzero}
   ]]>
  </style>
 </defs>
 <g id="Layer_x0020_1">
  <metadata id="CorelCorpID_0Corel-Layer"/>
  <polygon class="fil0" points="500,2971 601,2971 834,3281 834,2971 942,2971 942,3472 849,3472 608,3156 608,3472 500,3472 "/>
  <path class="fil0" d="M1263 3252c-6,-48 -35,-81 -80,-81 -45,0 -74,32 -82,81l163 0zm-268 32l0 -1c0,-109 77,-198 188,-198 127,0 185,99 185,207 0,8 -1,18 -1,28l-265 0c11,49 45,75 93,75 36,0 62,-11 92,-39l62 55c-35,44 -87,71 -155,71 -114,0 -199,-80 -199,-197z"/>
  <path class="fil0" d="M1435 3364l0 -180 -45 0 0 -92 45 0 0 -97 108 0 0 97 90 0 0 92 -90 0 0 163c0,25 11,37 35,37 20,0 38,-5 53,-14l0 87c-23,14 -49,22 -85,22 -66,0 -111,-26 -111,-114z"/>
  <path class="fil0" d="M2491 3282l0 -1c0,-63 -43,-105 -93,-105 -50,0 -92,42 -92,105l0 1c0,63 42,105 92,105 50,0 93,-41 93,-105zm-292 -191l108 0 0 55c26,-36 62,-62 119,-62 89,0 173,70 173,197l0 1c0,127 -83,197 -173,197 -57,0 -93,-26 -119,-57l0 163 -108 0 0 -494z"/>
  <path class="fil0" d="M2935 3282l0 -1c0,-63 -43,-105 -93,-105 -50,0 -92,42 -92,105l0 1c0,63 42,105 92,105 50,0 93,-41 93,-105zm-292 -191l108 0 0 55c26,-36 63,-62 119,-62 89,0 173,70 173,197l0 1c0,127 -83,197 -173,197 -58,0 -93,-26 -119,-57l0 163 -108 0 0 -494z"/>
  <path class="fil0" d="M1980 3264l-66 -161 -66 161 132 0zm-114 -293l98 0 208 501 -114 0 -46 -112 -197 0 -45 112 -111 0 208 -501z"/>
  <polygon class="fil1" points="500,487 500,2596 1485,2596 1485,1330 2047,1330 2047,2596 3031,2596 3031,487 "/>
  <path class="fil0" d="M3107 3146l12 0c2,0 5,0 7,0 2,0 4,-1 6,-1 2,-1 3,-2 4,-4 1,-2 2,-4 2,-7 0,-2 0,-4 -1,-6 -1,-1 -2,-3 -4,-3 -1,-1 -3,-1 -5,-2 -2,0 -4,0 -6,0l-15 0 0 23zm-11 -32l28 0c9,0 15,2 19,5 4,3 6,9 6,15 0,6 -2,11 -5,14 -4,3 -8,5 -13,5l21 32 -12 0 -20 -31 -12 0 0 31 -11 0 0 -72zm-27 36c0,8 1,15 4,21 3,6 6,12 11,17 5,5 10,8 16,11 6,3 13,4 20,4 7,0 14,-1 20,-4 6,-3 12,-6 16,-11 5,-5 8,-10 11,-17 3,-6 4,-13 4,-21 0,-7 -1,-14 -4,-21 -3,-6 -6,-12 -11,-17 -5,-5 -10,-8 -16,-11 -6,-3 -13,-4 -20,-4 -7,0 -14,1 -20,4 -6,3 -11,6 -16,11 -5,5 -8,10 -11,17 -3,6 -4,13 -4,21zm-11 0c0,-9 2,-17 5,-24 3,-8 8,-14 13,-19 6,-5 12,-10 20,-13 7,-3 15,-5 24,-5 8,0 16,2 24,5 8,3 14,7 20,13 6,5 10,12 13,19 3,7 5,15 5,24 0,9 -2,17 -5,25 -3,8 -8,14 -13,20 -6,6 -12,10 -20,13 -7,3 -15,5 -24,5 -9,0 -16,-2 -24,-5 -8,-3 -14,-7 -20,-13 -6,-5 -10,-12 -13,-20 -3,-7 -5,-16 -5,-25z"/>
 </g>
</svg>
