<?xml version="1.0" encoding="UTF-8" standalone="no"?>
<svg
   xmlns:dc="http://purl.org/dc/elements/1.1/"
   xmlns:cc="http://creativecommons.org/ns#"
   xmlns:rdf="http://www.w3.org/1999/02/22-rdf-syntax-ns#"
   xmlns:svg="http://www.w3.org/2000/svg"
   xmlns="http://www.w3.org/2000/svg"
   viewBox="0 0 449.85001 123.7875"
   height="34.6605"
   width="125.9580028"
   xml:space="preserve"
   version="1.1"
   id="svg2"><metadata
     id="metadata8"><rdf:RDF><cc:Work
         rdf:about=""><dc:format>image/svg+xml</dc:format><dc:type
           rdf:resource="http://purl.org/dc/dcmitype/StillImage" /></cc:Work></rdf:RDF></metadata><defs
     id="defs6"><clipPath
       id="clipPath18"
       clipPathUnits="userSpaceOnUse"><path
         id="path20"
         d="m 0,0 3598.76,0 0,990 L 0,990 0,0 Z" /></clipPath></defs><g
     transform="matrix(1.25,0,0,-1.25,0,123.7875)"
     id="g10"><g
       transform="scale(0.1,0.1)"
       id="g12"><g
         id="g14"><g
           clip-path="url(#clipPath18)"
           id="g16"><path
             id="path22"
             style="fill:#100f0d;fill-opacity:1;fill-rule:nonzero;stroke:none"
             d="m 3338.03,671.008 0,1.433 c 0,64.86 -43.77,107.879 -95.52,107.879 -51.68,0 -94.75,-43.019 -94.75,-107.879 l 0,-1.433 c 0,-64.914 43.07,-107.965 94.75,-107.965 51.75,0 95.52,42.34 95.52,107.965 z m -299.62,196.101 110.84,0 0,-56.117 c 26.96,36.438 64.17,63.371 121.71,63.371 91.15,0 177.84,-71.425 177.84,-201.922 l 0,-1.433 c 0,-130.524 -85.25,-201.953 -177.84,-201.953 -59.07,0 -95.53,26.961 -121.71,58.304 l 0,-167.632 -110.84,0 0,507.382" /><path
             id="path24"
             style="fill:#100f0d;fill-opacity:1;fill-rule:nonzero;stroke:none"
             d="m 838.41,990.266 103.602,0 239.068,-317.825 0,317.825 110.81,0 0,-513.977 -95.48,0 -247.113,324.512 0,-324.512 -110.887,0 0,513.977" /><path
             id="path26"
             style="fill:#100f0d;fill-opacity:1;fill-rule:nonzero;stroke:none"
             d="m 1621.29,702.328 c -6.51,49.637 -35.68,83.152 -82.29,83.152 -46,0 -75.9,-32.945 -84.61,-83.152 l 166.9,0 z m -275.53,-32.816 0,1.496 c 0,111.527 79.48,203.355 193.24,203.355 130.43,0 190.19,-101.328 190.19,-212.144 0,-8.723 -0.65,-18.981 -1.47,-29.156 l -271.91,0 c 11.02,-50.29 45.93,-76.583 95.54,-76.583 37.2,0 64.12,11.676 94.76,40.141 l 63.36,-56.137 c -36.39,-45.218 -88.9,-72.894 -159.55,-72.894 -117.4,0 -204.16,82.351 -204.16,201.922" /><path
             id="path28"
             style="fill:#100f0d;fill-opacity:1;fill-rule:nonzero;stroke:none"
             d="m 1798.39,587.203 0,185.156 -46.64,0 0,94.75 46.64,0 0,99.813 110.74,0 0,-99.813 91.93,0 0,-94.75 -91.93,0 0,-166.976 c 0,-25.512 11,-37.934 35.74,-37.934 20.4,0 38.61,5.098 54.72,13.926 l 0,-88.98 c -23.34,-13.887 -50.4,-22.618 -87.59,-22.618 -67.73,0 -113.61,26.993 -113.61,117.426" /><path
             id="path30"
             style="fill:#100f0d;fill-opacity:1;fill-rule:nonzero;stroke:none"
             d="m 2882.46,671.008 0,1.433 c 0,64.86 -43.75,107.879 -95.44,107.879 -51.74,0 -94.74,-43.019 -94.74,-107.879 l 0,-1.433 c 0,-64.914 43,-107.965 94.74,-107.965 51.69,0 95.44,42.34 95.44,107.965 z m -299.51,196.101 110.78,0 0,-56.117 c 26.95,36.438 64.11,63.371 121.72,63.371 91.17,0 177.86,-71.425 177.86,-201.922 l 0,-1.433 c 0,-130.524 -85.26,-201.953 -177.86,-201.953 -59.02,0 -95.52,26.961 -121.72,58.304 l 0,-167.632 -110.78,0 0,507.382" /><path
             id="path32"
             style="fill:#100f0d;fill-opacity:1;fill-rule:nonzero;stroke:none"
             d="m 2357.96,689.855 -67.76,165.629 -67.84,-165.629 135.6,0 z m -116.81,300.458 100.88,0 213.23,-514.024 -116.96,0 -47,114.539 -202.3,0 -46.66,-114.539 -114.4,0 213.21,514.024" /><path
             id="path34"
             style="fill:#3862b7;fill-opacity:1;fill-rule:nonzero;stroke:none"
             d="m 0,990.246 0,-513.957 239.836,0 0,308.379 137.055,0 0,-308.379 239.839,0 0,513.957 -616.73,0" /><path
             id="path36"
             style="fill:#3862b7;fill-opacity:1;fill-rule:nonzero;stroke:none"
             d="m 863.84,219.961 0,-190.7032 56.64,0 c 61.125,0 100.15,41.3086 100.15,94.6682 l 0,0.683 c 0,53.36 -39.025,95.352 -100.15,95.352 l -56.64,0 z m -27.293,25.137 83.933,0 c 75.985,0 128.48,-51.981 128.48,-119.793 l 0,-0.696 C 1048.96,56.7969 996.465,4.13281 920.48,4.13281 l -83.933,0 0,240.96519" /><path
             id="path38"
             style="fill:#3862b7;fill-opacity:1;fill-rule:nonzero;stroke:none"
             d="m 1199.49,69.5313 0,17.2187 c -13.13,3.7891 -30.74,7.5664 -52.5,7.5664 -33.5,0 -52.16,-14.4531 -52.16,-36.8242 l 0,-0.6953 c 0,-22.3828 20.73,-35.4571 44.91,-35.4571 32.8,0 59.75,19.9688 59.75,48.1915 z m -131.59,-13.7696 0,0.6836 c 0,37.5313 31.08,57.4997 76.33,57.4997 22.79,0 39.02,-3.105 54.91,-7.578 l 0,6.203 c 0,32 -19.68,48.535 -53.19,48.535 -21.07,0 -37.64,-5.519 -54.23,-13.085 l -7.94,21.687 c 19.69,8.957 39.03,14.805 64.94,14.805 25.22,0 44.55,-6.543 57.68,-19.629 12.08,-12.039 18.31,-29.258 18.31,-51.973 l 0,-108.77719 -25.57,0 0,26.84379 C 1186.7,14.8047 1165.98,0.34375 1134.56,0.34375 c -33.16,0 -66.66,18.93355 -66.66,55.41795" /><path
             id="path40"
             style="fill:#3862b7;fill-opacity:1;fill-rule:nonzero;stroke:none"
             d="m 1275.09,51.2891 0,107.4019 -24.86,0 0,23.411 24.86,0 0,53.699 26.59,0 0,-53.699 56.65,0 0,-23.411 -56.65,0 0,-103.9644 c 0,-21.6797 12.09,-29.5977 30.06,-29.5977 8.98,0 16.58,1.7188 25.9,6.1992 l 0,-22.72263 c -9.32,-4.81641 -19.35,-7.57813 -32.12,-7.57813 -28.67,0 -50.43,14.12106 -50.43,50.26176" /><path
             id="path42"
             style="fill:#3862b7;fill-opacity:1;fill-rule:nonzero;stroke:none"
             d="m 1516.49,69.5313 0,17.2187 c -13.13,3.7891 -30.74,7.5664 -52.51,7.5664 -33.49,0 -52.14,-14.4531 -52.14,-36.8242 l 0,-0.6953 c 0,-22.3828 20.72,-35.4571 44.9,-35.4571 32.8,0 59.75,19.9688 59.75,48.1915 z m -131.59,-13.7696 0,0.6836 c 0,37.5313 31.09,57.4997 76.33,57.4997 22.79,0 39.02,-3.105 54.91,-7.578 l 0,6.203 c 0,32 -19.68,48.535 -53.19,48.535 -21.07,0 -37.65,-5.519 -54.22,-13.085 l -7.94,21.687 c 19.68,8.957 39.02,14.805 64.93,14.805 25.21,0 44.55,-6.543 57.67,-19.629 12.09,-12.039 18.31,-29.258 18.31,-51.973 l 0,-108.77719 -25.56,0 0,26.84379 c -12.43,-16.1719 -33.16,-30.63285 -64.58,-30.63285 -33.16,0 -66.66,18.93355 -66.66,55.41795" /><path
             id="path44"
             style="fill:#3862b7;fill-opacity:1;fill-rule:nonzero;stroke:none"
             d="m 1719.84,219.961 0,-190.7032 56.65,0 c 61.12,0 100.17,41.3086 100.17,94.6682 l 0,0.683 c 0,53.36 -39.05,95.352 -100.17,95.352 l -56.65,0 z m -27.28,25.137 83.93,0 c 75.99,0 128.48,-51.981 128.48,-119.793 l 0,-0.696 c 0,-67.8121 -52.49,-120.47619 -128.48,-120.47619 l -83.93,0 0,240.96519" /><path
             id="path46"
             style="fill:#3862b7;fill-opacity:1;fill-rule:nonzero;stroke:none"
             d="m 1944.29,182.102 26.59,0 0,-46.477 c 13.13,29.609 39.03,50.949 72.89,49.57 l 0,-28.562 -2.08,0 c -39.03,0 -70.81,-27.891 -70.81,-81.5939 l 0,-70.90629 -26.59,0 0,177.96919" /><path
             id="path48"
             style="fill:#3862b7;fill-opacity:1;fill-rule:nonzero;stroke:none"
             d="m 2079.65,182.102 26.6,0 0,-177.96919 -26.6,0 0,177.96919 z m -1.71,68.164 30.38,0 0,-29.27 -30.38,0 0,29.27" /><path
             id="path50"
             style="fill:#3862b7;fill-opacity:1;fill-rule:nonzero;stroke:none"
             d="m 2143.53,182.102 29.36,0 60.09,-147.6879 60.44,147.6879 28.67,0 -77.72,-179.34809 -23.48,0 -77.36,179.34809" /><path
             id="path52"
             style="fill:#3862b7;fill-opacity:1;fill-rule:nonzero;stroke:none"
             d="m 2470.55,102.93 c -2.75,32.355 -21.4,60.586 -56.98,60.586 -31.08,0 -54.57,-25.821 -58.03,-60.586 l 115.01,0 z m -141.94,-10.3323 0,0.6836 c 0,51.2887 36.27,92.6097 85.64,92.6097 52.86,0 83.26,-42.004 83.26,-93.9769 0,-3.4453 0,-5.5078 -0.37,-8.6133 l -141.6,0 c 3.81,-38.5547 31.09,-60.2422 62.86,-60.2422 24.53,0 41.8,9.9883 56.3,25.1367 l 16.58,-14.8047 C 2473.33,13.4297 2451.56,0 2417.72,0 c -49.05,0 -89.11,37.5195 -89.11,92.5977" /><path
             id="path54"
             style="fill:#3862b7;fill-opacity:1;fill-rule:nonzero;stroke:none"
             d="m 2530.27,182.102 26.59,0 0,-30.977 c 11.75,19.266 30.39,34.766 61.13,34.766 43.17,0 68.38,-28.918 68.38,-71.262 l 0,-110.49619 -26.59,0 0,103.95319 c 0,33.047 -17.95,53.703 -49.39,53.703 -30.73,0 -53.53,-22.375 -53.53,-55.762 l 0,-101.89419 -26.59,0 0,177.96919" /><path
             id="path56"
             style="fill:#100f0d;fill-opacity:1;fill-rule:nonzero;stroke:none"
             d="m 3521.12,810.23 12.2,0 c 2.52,0 4.94,0.075 7.32,0.25 2.41,0.196 4.56,0.665 6.34,1.465 1.86,0.809 3.3,2.028 4.4,3.68 1.08,1.656 1.62,3.977 1.62,6.953 0,2.508 -0.47,4.524 -1.49,5.988 -0.92,1.485 -2.22,2.641 -3.74,3.446 -1.54,0.801 -3.32,1.343 -5.33,1.613 -1.96,0.27 -3.99,0.445 -5.91,0.445 l -15.41,0 0,-23.84 z m -11.63,33.262 28.93,0 c 8.9,0 15.5,-1.781 19.81,-5.312 4.24,-3.543 6.43,-8.922 6.43,-16.117 0,-6.75 -1.9,-11.684 -5.71,-14.821 -3.73,-3.16 -8.42,-5.004 -14.02,-5.57 l 21.42,-33.07 -12.5,0 -20.41,32.218 -12.32,0 0,-32.218 -11.63,0 0,74.89 z m -27.96,-37.207 c 0,-7.871 1.37,-15.16 4.03,-21.855 2.7,-6.664 6.41,-12.461 11.19,-17.371 4.69,-4.922 10.34,-8.782 16.74,-11.582 6.46,-2.786 13.46,-4.18 21,-4.18 7.42,0 14.35,1.394 20.73,4.18 6.43,2.8 11.97,6.66 16.71,11.582 4.72,4.91 8.45,10.707 11.14,17.371 2.7,6.695 4.04,13.984 4.04,21.855 0,7.676 -1.34,14.801 -4.04,21.438 -2.69,6.613 -6.42,12.363 -11.14,17.199 -4.74,4.879 -10.28,8.691 -16.71,11.488 -6.38,2.793 -13.31,4.192 -20.73,4.192 -7.54,0 -14.54,-1.399 -21,-4.192 -6.4,-2.797 -12.05,-6.609 -16.74,-11.488 -4.78,-4.836 -8.49,-10.586 -11.19,-17.199 -2.66,-6.637 -4.03,-13.762 -4.03,-21.438 z m -11.66,0 c 0,9.028 1.72,17.414 5.14,25.195 3.45,7.778 8.08,14.516 14,20.235 5.87,5.707 12.74,10.207 20.58,13.433 7.79,3.278 16.09,4.899 24.9,4.899 8.69,0 16.92,-1.621 24.75,-4.899 7.84,-3.226 14.64,-7.726 20.47,-13.433 5.84,-5.719 10.46,-12.457 13.89,-20.235 3.42,-7.781 5.17,-16.167 5.17,-25.195 0,-9.242 -1.75,-17.793 -5.17,-25.59 -3.43,-7.855 -8.05,-14.652 -13.89,-20.41 -5.83,-5.773 -12.63,-10.265 -20.47,-13.519 -7.83,-3.282 -16.06,-4.891 -24.75,-4.891 -8.81,0 -17.11,1.609 -24.9,4.891 -7.84,3.254 -14.71,7.746 -20.58,13.519 -5.92,5.758 -10.55,12.555 -14,20.41 -3.42,7.797 -5.14,16.348 -5.14,25.59" /></g></g></g></g></svg>
